<?xml version="1.0" encoding="UTF-8" standalone="no"?>
<!-- Created with Inkscape (http://www.inkscape.org/) -->

<svg
   xmlns:dc="http://purl.org/dc/elements/1.1/"
   xmlns:cc="http://creativecommons.org/ns#"
   xmlns:rdf="http://www.w3.org/1999/02/22-rdf-syntax-ns#"
   xmlns:svg="http://www.w3.org/2000/svg"
   xmlns="http://www.w3.org/2000/svg"
   xmlns:sodipodi="http://sodipodi.sourceforge.net/DTD/sodipodi-0.dtd"
   xmlns:inkscape="http://www.inkscape.org/namespaces/inkscape"
   width="210mm"
   height="297mm"
   viewBox="0 0 210 297"
   version="1.1"
   id="svg958"
   inkscape:version="0.92.3 (2405546, 2018-03-11)"
   sodipodi:docname="bezwen_vektè.svg"
   inkscape:export-filename="/home/rfleurmo/Documents/FiziKreyol/bezwen_vektè.png"
   inkscape:export-xdpi="96.099998"
   inkscape:export-ydpi="96.099998">
  <defs
     id="defs952">
    <marker
       inkscape:isstock="true"
       style="overflow:visible;"
       id="marker1918"
       refX="0.0"
       refY="0.0"
       orient="auto"
       inkscape:stockid="Arrow1Lend">
      <path
         transform="scale(0.8) rotate(180) translate(12.5,0)"
         style="fill-rule:evenodd;stroke:#000000;stroke-width:1pt;stroke-opacity:1;fill:#000000;fill-opacity:1"
         d="M 0.0,0.0 L 5.0,-5.0 L -12.5,0.0 L 5.0,5.0 L 0.0,0.0 z "
         id="path1916" />
    </marker>
    <marker
       inkscape:stockid="Arrow1Lstart"
       orient="auto"
       refY="0.0"
       refX="0.0"
       id="Arrow1Lstart"
       style="overflow:visible"
       inkscape:isstock="true">
      <path
         id="path1582"
         d="M 0.0,0.0 L 5.0,-5.0 L -12.5,0.0 L 5.0,5.0 L 0.0,0.0 z "
         style="fill-rule:evenodd;stroke:#000000;stroke-width:1pt;stroke-opacity:1;fill:#000000;fill-opacity:1"
         transform="scale(0.8) translate(12.5,0)" />
    </marker>
    <marker
       inkscape:stockid="Arrow1Lend"
       orient="auto"
       refY="0.0"
       refX="0.0"
       id="Arrow1Lend"
       style="overflow:visible;"
       inkscape:isstock="true"
       inkscape:collect="always">
      <path
         id="path1585"
         d="M 0.0,0.0 L 5.0,-5.0 L -12.5,0.0 L 5.0,5.0 L 0.0,0.0 z "
         style="fill-rule:evenodd;stroke:#000000;stroke-width:1pt;stroke-opacity:1;fill:#000000;fill-opacity:1"
         transform="scale(0.8) rotate(180) translate(12.5,0)" />
    </marker>
    <inkscape:perspective
       sodipodi:type="inkscape:persp3d"
       inkscape:vp_x="0 : 148.5 : 1"
       inkscape:vp_y="0 : 1000 : 0"
       inkscape:vp_z="210 : 148.5 : 1"
       inkscape:persp3d-origin="105 : 99 : 1"
       id="perspective1511" />
  </defs>
  <sodipodi:namedview
     id="base"
     pagecolor="#ffffff"
     bordercolor="#666666"
     borderopacity="1.0"
     inkscape:pageopacity="0.0"
     inkscape:pageshadow="2"
     inkscape:zoom="1.979899"
     inkscape:cx="386.522"
     inkscape:cy="777.02621"
     inkscape:document-units="mm"
     inkscape:current-layer="layer1"
     showgrid="true"
     inkscape:window-width="1920"
     inkscape:window-height="1025"
     inkscape:window-x="0"
     inkscape:window-y="27"
     inkscape:window-maximized="1">
    <inkscape:grid
       type="xygrid"
       id="grid1503" />
  </sodipodi:namedview>
  <metadata
     id="metadata955">
    <rdf:RDF>
      <cc:Work
         rdf:about="">
        <dc:format>image/svg+xml</dc:format>
        <dc:type
           rdf:resource="http://purl.org/dc/dcmitype/StillImage" />
        <dc:title />
      </cc:Work>
    </rdf:RDF>
  </metadata>
  <g
     inkscape:label="Layer 1"
     inkscape:groupmode="layer"
     id="layer1">
    <path
       style="fill:none;fill-rule:evenodd;stroke:#000000;stroke-width:0.26458332px;stroke-linecap:butt;stroke-linejoin:miter;stroke-opacity:1"
       d="M 5.2916666,93.270833 H 101.86458 l 47.625,47.624997"
       id="path1505"
       inkscape:connector-curvature="0"
       sodipodi:nodetypes="ccc" />
    <path
       style="fill:none;fill-rule:evenodd;stroke:#000000;stroke-width:0.26458332px;stroke-linecap:butt;stroke-linejoin:miter;stroke-opacity:1"
       d="M 101.86458,93.270833 V 53.583334"
       id="path1527"
       inkscape:connector-curvature="0" />
    <ellipse
       style="fill:none;fill-opacity:1;stroke:#808080;stroke-width:0.52916664;stroke-miterlimit:4;stroke-dasharray:none;stroke-dashoffset:0;stroke-opacity:1"
       id="path1529-3"
       cx="109.35401"
       cy="133.1245"
       rx="5.2916665"
       ry="1.984375" />
    <path
       style="fill:none;fill-rule:evenodd;stroke:#000000;stroke-width:0.26458332px;stroke-linecap:butt;stroke-linejoin:miter;stroke-opacity:1"
       d="M 111.125,72.104167 V 82.6875 l 6.61458,6.614584 v -11.90625 z"
       id="path2118"
       inkscape:connector-curvature="0" />
    <path
       style="fill:none;fill-rule:evenodd;stroke:#000000;stroke-width:0.26458332px;stroke-linecap:butt;stroke-linejoin:miter;stroke-opacity:1"
       d="M 75.406249,93.270833 V 64.166667 H 62.177083 v 29.104166 0"
       id="path2120"
       inkscape:connector-curvature="0" />
    <path
       style="fill:none;fill-rule:evenodd;stroke:#008080;stroke-width:0.26458332px;stroke-linecap:butt;stroke-linejoin:miter;stroke-opacity:1"
       d="m 48.947923,93.270842 9.26042,9.260408 h 13.22916 l -9.26042,-9.260417 z"
       id="path849-3"
       inkscape:connector-curvature="0"
       sodipodi:nodetypes="ccccc" />
    <path
       style="fill:none;fill-rule:evenodd;stroke:#008080;stroke-width:0.26458332px;stroke-linecap:butt;stroke-linejoin:miter;stroke-opacity:1"
       d="m 80.697917,111.79167 9.26042,9.2604 H 103.1875 l -9.260423,-9.26041 z"
       id="path849-3-6"
       inkscape:connector-curvature="0"
       sodipodi:nodetypes="ccccc" />
    <path
       style="fill:none;fill-rule:evenodd;stroke:#008080;stroke-width:0.26458332px;stroke-linecap:butt;stroke-linejoin:miter;stroke-opacity:1"
       d="m 97.895833,102.53125 9.260417,9.26041 h 13.22917 l -9.26042,-9.26042 z"
       id="path849-3-7"
       inkscape:connector-curvature="0"
       sodipodi:nodetypes="ccccc" />
    <path
       style="fill:none;fill-rule:evenodd;stroke:#008080;stroke-width:0.26458332px;stroke-linecap:butt;stroke-linejoin:miter;stroke-opacity:1"
       d="m 93.92708,111.79168 9.26042,9.2604 h 13.22917 l -9.26042,-9.26041 z"
       id="path849-3-5"
       inkscape:connector-curvature="0"
       sodipodi:nodetypes="ccccc" />
    <path
       style="fill:none;fill-rule:evenodd;stroke:#008080;stroke-width:0.26458332px;stroke-linecap:butt;stroke-linejoin:miter;stroke-opacity:1"
       d="m 103.18751,121.05209 9.26042,9.26041 h 13.22916 l -9.26042,-9.26042 z"
       id="path849-3-3"
       inkscape:connector-curvature="0"
       sodipodi:nodetypes="ccccc" />
    <path
       style="fill:none;fill-rule:evenodd;stroke:#008080;stroke-width:0.26458332px;stroke-linecap:butt;stroke-linejoin:miter;stroke-opacity:1"
       d="m 62.17709,93.270842 9.26042,9.260408 h 13.22916 l -9.26042,-9.260417 z"
       id="path849-3-56"
       inkscape:connector-curvature="0"
       sodipodi:nodetypes="ccccc" />
    <path
       style="fill:none;fill-rule:evenodd;stroke:#008080;stroke-width:0.26458332px;stroke-linecap:butt;stroke-linejoin:miter;stroke-opacity:1"
       d="m 71.437497,102.53126 9.26042,9.2604 h 13.22917 l -9.26042,-9.26041 z"
       id="path849-3-2"
       inkscape:connector-curvature="0"
       sodipodi:nodetypes="ccccc" />
    <path
       style="fill:none;fill-rule:evenodd;stroke:#008080;stroke-width:0.26458332px;stroke-linecap:butt;stroke-linejoin:miter;stroke-opacity:1"
       d="m 58.20833,102.53126 9.26042,9.2604 h 13.22917 l -9.26042,-9.26041 z"
       id="path849-3-9"
       inkscape:connector-curvature="0"
       sodipodi:nodetypes="ccccc" />
    <path
       style="fill:none;fill-rule:evenodd;stroke:#008080;stroke-width:0.26458332px;stroke-linecap:butt;stroke-linejoin:miter;stroke-opacity:1"
       d="m 35.718757,93.270842 9.26042,9.260398 h 13.22916 l -9.26042,-9.260407 z"
       id="path849-3-1"
       inkscape:connector-curvature="0"
       sodipodi:nodetypes="ccccc" />
    <path
       style="fill:none;fill-rule:evenodd;stroke:#008080;stroke-width:0.26458332px;stroke-linecap:butt;stroke-linejoin:miter;stroke-opacity:1"
       d="m 85.989583,130.3125 9.26042,9.2604 h 13.229157 l -9.260417,-9.26041 z"
       id="path849-3-27"
       inkscape:connector-curvature="0"
       sodipodi:nodetypes="ccccc" />
    <path
       style="fill:none;fill-rule:evenodd;stroke:#008080;stroke-width:0.26458332px;stroke-linecap:butt;stroke-linejoin:miter;stroke-opacity:1"
       d="m 89.95834,121.05209 9.26042,9.26041 h 13.22916 l -9.26042,-9.26042 z"
       id="path849-3-93"
       inkscape:connector-curvature="0"
       sodipodi:nodetypes="ccccc" />
    <path
       style="fill:none;fill-rule:evenodd;stroke:#008080;stroke-width:0.26458332px;stroke-linecap:butt;stroke-linejoin:miter;stroke-opacity:1"
       d="m 75.406257,93.270842 9.26042,9.260408 h 13.22916 l -9.26042,-9.260417 z"
       id="path849-3-60"
       inkscape:connector-curvature="0"
       sodipodi:nodetypes="ccccc" />
    <path
       style="fill:none;fill-rule:evenodd;stroke:#008080;stroke-width:0.26458332px;stroke-linecap:butt;stroke-linejoin:miter;stroke-opacity:1"
       d="m 125.67709,130.31251 9.26042,9.2604 h 13.22916 l -9.26042,-9.26041 z"
       id="path849-3-62"
       inkscape:connector-curvature="0"
       sodipodi:nodetypes="ccccc" />
    <path
       style="fill:none;fill-rule:evenodd;stroke:#008080;stroke-width:0.26458332px;stroke-linecap:butt;stroke-linejoin:miter;stroke-opacity:1"
       d="m 116.41666,121.05209 9.26042,9.26041 h 13.22917 l -9.26042,-9.26042 z"
       id="path849-3-61"
       inkscape:connector-curvature="0"
       sodipodi:nodetypes="ccccc" />
    <path
       style="fill:none;fill-rule:evenodd;stroke:#008080;stroke-width:0.26458332px;stroke-linecap:butt;stroke-linejoin:miter;stroke-opacity:1"
       d="m 84.666663,102.53126 9.26042,9.2604 h 13.229167 l -9.260417,-9.26041 z"
       id="path849-3-8"
       inkscape:connector-curvature="0"
       sodipodi:nodetypes="ccccc" />
    <path
       style="fill:none;fill-rule:evenodd;stroke:#008080;stroke-width:0.26458332px;stroke-linecap:butt;stroke-linejoin:miter;stroke-opacity:1"
       d="m 107.15626,111.79168 9.26042,9.2604 h 13.22916 l -9.26042,-9.26041 z"
       id="path849-3-79"
       inkscape:connector-curvature="0"
       sodipodi:nodetypes="ccccc" />
    <path
       style="fill:none;fill-rule:evenodd;stroke:#008080;stroke-width:0.26458332px;stroke-linecap:butt;stroke-linejoin:miter;stroke-opacity:1"
       d="m 88.635413,93.270842 9.26042,9.260408 H 111.125 l -9.26042,-9.260417 z"
       id="path849-3-20"
       inkscape:connector-curvature="0"
       sodipodi:nodetypes="ccccc" />
    <path
       style="fill:none;fill-rule:evenodd;stroke:#008080;stroke-width:0.26458332px;stroke-linecap:butt;stroke-linejoin:miter;stroke-opacity:1"
       d="m 112.44792,130.31251 9.26042,9.26041 h 13.22916 l -9.26042,-9.26042 z"
       id="path849-3-23"
       inkscape:connector-curvature="0"
       sodipodi:nodetypes="ccccc" />
    <path
       style="fill:none;fill-rule:evenodd;stroke:#008080;stroke-width:0.26458332px;stroke-linecap:butt;stroke-linejoin:miter;stroke-opacity:1"
       d="m 44.979173,102.53126 9.26042,9.26041 h 13.22916 l -9.26042,-9.26042 z"
       id="path849-3-75"
       inkscape:connector-curvature="0"
       sodipodi:nodetypes="ccccc" />
    <path
       style="fill:none;fill-rule:evenodd;stroke:#008080;stroke-width:0.26458332px;stroke-linecap:butt;stroke-linejoin:miter;stroke-opacity:1"
       d="m 9.2604167,93.270833 9.2604203,9.260397 h 13.22917 l -9.26042,-9.260407 z"
       id="path849-3-92"
       inkscape:connector-curvature="0"
       sodipodi:nodetypes="ccccc" />
    <path
       style="fill:none;fill-rule:evenodd;stroke:#008080;stroke-width:0.26458332px;stroke-linecap:butt;stroke-linejoin:miter;stroke-opacity:1"
       d="m 54.239583,111.79167 9.26042,9.2604 h 13.22917 l -9.26042,-9.26041 z"
       id="path849-3-36"
       inkscape:connector-curvature="0"
       sodipodi:nodetypes="ccccc" />
    <path
       style="fill:none;fill-rule:evenodd;stroke:#008080;stroke-width:0.26458332px;stroke-linecap:butt;stroke-linejoin:miter;stroke-opacity:1"
       d="m 31.75,102.53125 9.26042,9.2604 h 13.22917 l -9.26042,-9.26041 z"
       id="path849-3-12"
       inkscape:connector-curvature="0"
       sodipodi:nodetypes="ccccc" />
    <path
       style="fill:none;fill-rule:evenodd;stroke:#008080;stroke-width:0.26458332px;stroke-linecap:butt;stroke-linejoin:miter;stroke-opacity:1"
       d="m 99.218747,130.31251 9.260423,9.2604 h 13.22917 l -9.26042,-9.26041 z"
       id="path849-3-931"
       inkscape:connector-curvature="0"
       sodipodi:nodetypes="ccccc" />
    <path
       style="fill:none;fill-rule:evenodd;stroke:#008080;stroke-width:0.26458332px;stroke-linecap:butt;stroke-linejoin:miter;stroke-opacity:1"
       d="m 76.729173,121.05209 9.26042,9.2604 h 13.22916 l -9.26042,-9.26041 z"
       id="path849-3-94"
       inkscape:connector-curvature="0"
       sodipodi:nodetypes="ccccc" />
    <path
       style="fill:none;fill-rule:evenodd;stroke:#008080;stroke-width:0.26458332px;stroke-linecap:butt;stroke-linejoin:miter;stroke-opacity:1"
       d="m 67.468757,111.79168 9.26042,9.2604 h 13.22916 l -9.26042,-9.26041 z"
       id="path849-3-78"
       inkscape:connector-curvature="0"
       sodipodi:nodetypes="ccccc" />
    <path
       style="fill:none;fill-rule:evenodd;stroke:#008080;stroke-width:0.26458332px;stroke-linecap:butt;stroke-linejoin:miter;stroke-opacity:1"
       d="m 22.48959,93.270842 9.26042,9.260408 h 13.22916 l -9.26042,-9.260417 z"
       id="path849-3-4"
       inkscape:connector-curvature="0"
       sodipodi:nodetypes="ccccc" />
    <path
       style="fill:none;fill-rule:evenodd;stroke:#008080;stroke-width:0.26458332px;stroke-linecap:butt;stroke-linejoin:miter;stroke-opacity:1"
       d="m 18.52084,102.53126 9.26042,9.2604 H 41.01042 L 31.75,102.53125 Z"
       id="path849-3-50"
       inkscape:connector-curvature="0"
       sodipodi:nodetypes="ccccc" />
    <path
       style="fill:none;fill-rule:evenodd;stroke:#008080;stroke-width:0.26458332px;stroke-linecap:butt;stroke-linejoin:miter;stroke-opacity:1"
       d="m 41.010423,111.79168 9.26042,9.2604 h 13.22916 l -9.26042,-9.26041 z"
       id="path849-3-361"
       inkscape:connector-curvature="0"
       sodipodi:nodetypes="ccccc" />
    <path
       style="fill:none;fill-rule:evenodd;stroke:#008080;stroke-width:0.26458332px;stroke-linecap:butt;stroke-linejoin:miter;stroke-opacity:1"
       d="m 27.781257,111.79168 9.26042,9.2604 h 13.22916 l -9.26042,-9.26041 z"
       id="path849-3-06"
       inkscape:connector-curvature="0"
       sodipodi:nodetypes="ccccc" />
    <path
       style="fill:none;fill-rule:evenodd;stroke:#008080;stroke-width:0.26458332px;stroke-linecap:butt;stroke-linejoin:miter;stroke-opacity:1"
       d="m 14.55209,111.79168 9.26042,9.2604 h 13.22916 l -9.26042,-9.26041 z"
       id="path849-3-32"
       inkscape:connector-curvature="0"
       sodipodi:nodetypes="ccccc" />
    <path
       style="fill:none;fill-rule:evenodd;stroke:#008080;stroke-width:0.26458332px;stroke-linecap:butt;stroke-linejoin:miter;stroke-opacity:1"
       d="m 63.500007,121.05209 9.26042,9.2604 h 13.22916 l -9.26042,-9.26041 z"
       id="path849-3-061"
       inkscape:connector-curvature="0"
       sodipodi:nodetypes="ccccc" />
    <path
       style="fill:none;fill-rule:evenodd;stroke:#008080;stroke-width:0.26458332px;stroke-linecap:butt;stroke-linejoin:miter;stroke-opacity:1"
       d="m -3.9687433,93.270843 9.26042,9.260397 H 18.520837 L 9.2604167,93.270833 Z"
       id="path849-3-55"
       inkscape:connector-curvature="0"
       sodipodi:nodetypes="ccccc" />
    <path
       style="fill:none;fill-rule:evenodd;stroke:#008080;stroke-width:0.26458332px;stroke-linecap:butt;stroke-linejoin:miter;stroke-opacity:1"
       d="m 5.2916667,102.53125 9.2604203,9.2604 h 13.22916 l -9.26042,-9.26041 z"
       id="path849-3-65"
       inkscape:connector-curvature="0"
       sodipodi:nodetypes="ccccc" />
    <ellipse
       style="fill:#000000;fill-opacity:1;stroke:#808080;stroke-width:0.52916664;stroke-miterlimit:4;stroke-dasharray:none;stroke-dashoffset:0;stroke-opacity:1"
       id="path1529"
       cx="109.33404"
       cy="120.69712"
       rx="5.2916665"
       ry="1.984375" />
    <path
       style="fill:none;fill-rule:evenodd;stroke:#000000;stroke-width:0.26458332px;stroke-linecap:butt;stroke-linejoin:miter;stroke-opacity:1"
       d="m 104.04237,121.35859 v 10.58333 l 10e-6,1.32292"
       id="path1546"
       inkscape:connector-curvature="0"
       sodipodi:nodetypes="ccc" />
    <path
       style="fill:none;fill-rule:evenodd;stroke:#000000;stroke-width:0.26458332px;stroke-linecap:butt;stroke-linejoin:miter;stroke-opacity:1"
       d="m 114.62571,121.35859 0,11.90625"
       id="path1548"
       inkscape:connector-curvature="0"
       sodipodi:nodetypes="cc" />
    <path
       style="fill:#ccff00;fill-opacity:1;stroke:#808080;stroke-width:0.06681738;stroke-miterlimit:4;stroke-dasharray:none;stroke-dashoffset:0;stroke-opacity:1"
       d="m 104.18215,126.9271 v -5.3141 l 0.21566,0.16323 c 0.70053,0.53023 1.78003,0.8867 3.30296,1.09069 0.52447,0.0703 2.13667,0.099 2.73598,0.0488 1.32709,-0.11122 2.38724,-0.36547 3.21676,-0.77147 0.2205,-0.10792 0.49487,-0.27213 0.60971,-0.36491 l 0.2088,-0.1687 v 5.28251 c 0,5.15773 -0.002,5.28143 -0.0626,5.23668 -0.49745,-0.36427 -0.88302,-0.56051 -1.49611,-0.76144 -1.83859,-0.60259 -4.4901,-0.67115 -6.5262,-0.16877 -0.90102,0.22231 -1.66222,0.5651 -2.09112,0.94167 l -0.11385,0.1 z"
       id="path1550"
       inkscape:connector-curvature="0" />
    <path
       style="fill:#ccff00;fill-opacity:1;stroke:#808080;stroke-width:0.06681738;stroke-miterlimit:4;stroke-dasharray:none;stroke-dashoffset:0;stroke-opacity:1"
       d="m 108.72573,134.82002 c -1.88093,-0.1053 -3.47456,-0.56185 -4.10025,-1.17465 -0.38471,-0.37679 -0.3699,-0.69237 0.0508,-1.08184 0.51372,-0.47561 1.60322,-0.85075 3.04722,-1.04923 0.52417,-0.072 2.12125,-0.10244 2.7071,-0.0515 1.56744,0.13626 2.87538,0.51647 3.5156,1.02195 0.52236,0.41243 0.55296,0.77122 0.10109,1.18528 -0.5699,0.52221 -1.80939,0.93012 -3.29862,1.08558 -0.47743,0.0498 -1.62859,0.0865 -2.02291,0.0644 z"
       id="path1552"
       inkscape:connector-curvature="0" />
    <path
       style="fill:#ffccaa;fill-opacity:1;stroke:#808080;stroke-width:0.06681738;stroke-miterlimit:4;stroke-dasharray:none;stroke-dashoffset:0;stroke-opacity:1"
       d="m 108.47917,122.375 c -2.03659,-0.12982 -3.75174,-0.73723 -4.09728,-1.45103 -0.39385,-0.81358 1.36485,-1.67098 3.87511,-1.88921 0.5864,-0.051 2.18314,-0.0206 2.70711,0.0516 1.44388,0.19879 2.52473,0.57343 3.0565,1.05944 0.44656,0.40813 0.42107,0.78173 -0.0807,1.18314 -0.93028,0.7442 -3.24383,1.18739 -5.46074,1.04607 z"
       id="path1554"
       inkscape:connector-curvature="0" />
    <path
       style="fill:#445500;fill-opacity:1;stroke:#808080;stroke-width:1.01015258;stroke-miterlimit:4;stroke-dasharray:none;stroke-dashoffset:0;stroke-opacity:1"
       d="m 404.20207,461.416 c -4.01463,-0.87346 -8.14829,-2.67111 -9.02704,-3.9257 -3.3298,-4.75395 13.19253,-9.01876 26.05275,-6.72483 5.95636,1.06246 10.54906,3.38294 10.54906,5.32995 0,1.14233 -1.86673,2.81657 -4.25129,3.8129 -5.17033,2.1603 -16.85283,2.91548 -23.32348,1.50768 z"
       id="path1576"
       inkscape:connector-curvature="0"
       transform="scale(0.26458333)" />
    <path
       style="fill:none;fill-rule:evenodd;stroke:#000000;stroke-width:0.26458332px;stroke-linecap:butt;stroke-linejoin:miter;stroke-opacity:1"
       d="M 36.869727,117.7524 H 23.640561 l -7.9375,-7.9375 V 95.26281 l 7.9375,7.9375 h 13.229166 z"
       id="path1556"
       inkscape:connector-curvature="0" />
    <path
       style="fill:none;fill-rule:evenodd;stroke:#000000;stroke-width:0.26458332px;stroke-linecap:butt;stroke-linejoin:miter;stroke-opacity:1"
       d="M 23.640561,103.20031 V 117.7524"
       id="path1558"
       inkscape:connector-curvature="0" />
    <path
       style="fill:none;fill-rule:evenodd;stroke:#000000;stroke-width:0.26458332px;stroke-linecap:butt;stroke-linejoin:miter;stroke-opacity:1"
       d="m 36.869727,103.20031 -7.9375,-7.9375 H 15.703061"
       id="path1560"
       inkscape:connector-curvature="0" />
    <path
       style="fill:#ff5555;fill-opacity:1;stroke:#808080;stroke-width:0.26726952;stroke-miterlimit:4;stroke-dasharray:none;stroke-dashoffset:0;stroke-opacity:1"
       d="m 23.8125,110.46875 v -7.08264 h 6.414468 6.414469 v 7.08264 7.08264 H 30.226968 23.8125 Z"
       id="path1562"
       inkscape:connector-curvature="0" />
    <path
       style="fill:#ff5555;fill-opacity:1;stroke:#808080;stroke-width:1.01015258;stroke-miterlimit:4;stroke-dasharray:none;stroke-dashoffset:0;stroke-opacity:1"
       d="M 75.192988,375.04044 60.80496,360.64577 h 23.991123 23.991127 l 14.38802,14.39467 14.38803,14.39468 H 113.57214 89.581015 Z"
       id="path1572"
       inkscape:connector-curvature="0"
       transform="scale(0.26458333)" />
    <path
       style="fill:#445500;fill-opacity:1;stroke:#808080;stroke-width:1.01015258;stroke-miterlimit:4;stroke-dasharray:none;stroke-dashoffset:0;stroke-opacity:1"
       d="M 74.309104,428.70498 60.0407,414.42986 v -26.2596 -26.2596 l 14.399283,14.39928 14.399283,14.39928 -0.130879,26.13544 -0.130878,26.13544 z"
       id="path1574"
       inkscape:connector-curvature="0"
       transform="scale(0.26458333)" />
    <path
       style="fill:#784421;fill-opacity:1;fill-rule:evenodd;stroke:#808080;stroke-width:0.26458332px;stroke-linecap:butt;stroke-linejoin:miter;stroke-opacity:1"
       d="m 96.572916,86.65625 2.645833,10.58333 h 2.645841 v -1.322914 h -1.32292 L 97.895832,86.65625 v -6.614583 l 2.645838,7.937499 h 1.32292 L 99.218749,78.71875 h -2.645833 v -1.322917 l 1.322916,-1.322916 C 98.43775,75.055812 97.667061,74.219208 96.572916,73.427083 H 95.249999 L 93.927083,74.75 v 1.322917 l 1.322916,1.322916 v 1.322917 h -2.645833 l -2.645833,9.260416 h 1.322916 l 2.645834,-7.937499 v 6.614583 l -2.645834,9.260416 h -1.322916 v 1.322914 h 2.645833 l 2.645833,-10.58333 z"
       id="path1509"
       inkscape:connector-curvature="0"
       sodipodi:nodetypes="cccccccccccccccccccccccccccccc" />
    <path
       style="fill:none;fill-rule:evenodd;stroke:#000000;stroke-width:0.26458332px;stroke-linecap:butt;stroke-linejoin:miter;stroke-opacity:1"
       d="m 39.6875,53.583334 h 62.17708 l 52.91667,22.489583"
       id="path1091"
       inkscape:connector-curvature="0" />
    <path
       style="fill:none;fill-rule:evenodd;stroke:#000000;stroke-width:0.465;stroke-linecap:butt;stroke-linejoin:miter;stroke-opacity:1;marker-end:url(#marker1918);stroke-miterlimit:4;stroke-dasharray:none"
       d="M 95.249999,97.239583 44.979166,107.82292"
       id="path1578"
       inkscape:connector-curvature="0" />
    <path
       style="fill:none;fill-rule:evenodd;stroke:#000000;stroke-width:0.465;stroke-linecap:butt;stroke-linejoin:miter;stroke-opacity:1;marker-end:url(#Arrow1Lend);stroke-miterlimit:4;stroke-dasharray:none"
       d="m 95.249999,99.885417 5.291671,33.072913"
       id="path1896"
       inkscape:connector-curvature="0" />
  </g>
</svg>
